<svg width="183" height="185" viewBox="0 0 183 185" fill="none" xmlns="http://www.w3.org/2000/svg">
  <path d="M13.8101 6.32295L0.914062 9.4143L3.98494 22.3962L16.88 19.3048L13.8101 6.32295Z" fill="#73DCBA" />
  <path d="M166.728 144.627L153.832 147.718L156.903 160.7L169.798 157.609L166.728 144.627Z" fill="#73DCBA" />
  <path d="M142.674 126.466L129.778 129.557L132.849 142.539L145.744 139.448L142.674 126.466Z" fill="#73DCBA" />
  <path d="M62.3113 0L36.863 5.47747L42.3043 31.0952L67.7526 25.6177L62.3113 0.00100897V0Z" fill="#73DCBA" />
  <path d="M99.9219 22.7231L83.3787 26.2846L86.9156 42.9369L103.459 39.3764L99.9219 22.7231Z" fill="#73DCBA" />
  <path d="M165.364 67.9482L148.821 71.5088L152.358 88.1621L168.901 84.6006L165.364 67.9482Z" fill="#73DCBA" />
  <path d="M138.671 36.8501L113.774 42.2075L119.097 67.2713L143.995 61.9128L138.671 36.8501Z" fill="#73DCBA" />
  <path d="M134.574 88.1268L113.742 95.4506L121.018 116.421L141.849 109.098L134.574 88.1268Z" fill="#73DCBA" />
  <path d="M137.171 152.699L110.735 158.389L116.387 185L142.823 179.311L137.171 152.699Z" fill="#73DCBA" />
  <path d="M177.206 101.243L152.83 107.075L158.624 131.614L183 125.782L177.206 101.243Z" fill="#73DCBA" />
</svg>