<svg width="16" height="20" viewBox="0 0 16 20" fill="none" xmlns="http://www.w3.org/2000/svg">
  <path fill-rule="evenodd" clip-rule="evenodd"
    d="M8 19.75C8 19.75 15.5 15.642 15.5 8.5C15.5 6.51088 14.7098 4.60322 13.3033 3.1967C11.8968 1.79018 9.98912 1 8 1C6.01088 1 4.10322 1.79018 2.6967 3.1967C1.29018 4.60322 0.5 6.51088 0.5 8.5C0.5 15.642 8 19.75 8 19.75ZM10.1213 10.6213C10.6839 10.0587 11 9.29565 11 8.5C11 7.70435 10.6839 6.94129 10.1213 6.37868C9.55871 5.81607 8.79565 5.5 8 5.5C7.20435 5.5 6.44129 5.81607 5.87868 6.37868C5.31607 6.94129 5 7.70435 5 8.5C5 9.29565 5.31607 10.0587 5.87868 10.6213C6.44129 11.1839 7.20435 11.5 8 11.5C8.79565 11.5 9.55871 11.1839 10.1213 10.6213Z"
    fill="#f59e0b" />
  <path
    d="M8 19.75L7.8799 19.9693C7.95472 20.0102 8.04528 20.0102 8.1201 19.9693L8 19.75ZM13.3033 3.1967L13.1265 3.37348L13.1265 3.37348L13.3033 3.1967ZM2.6967 3.1967L2.87348 3.37348L2.87348 3.37348L2.6967 3.1967ZM15.25 8.5C15.25 11.9793 13.4231 14.7324 11.5712 16.6286C10.6467 17.575 9.72164 18.3021 9.02763 18.7923C8.68083 19.0373 8.3923 19.2228 8.19118 19.3467C8.09064 19.4086 8.01199 19.455 7.95888 19.4858C7.93233 19.5012 7.91217 19.5127 7.89885 19.5202C7.89219 19.5239 7.88725 19.5267 7.88407 19.5284C7.88248 19.5293 7.88133 19.5299 7.88064 19.5303C7.88029 19.5305 7.88005 19.5307 7.87993 19.5307C7.87987 19.5308 7.87986 19.5308 7.87983 19.5308C7.87985 19.5308 7.8799 19.5307 8 19.75C8.1201 19.9693 8.12021 19.9692 8.12034 19.9691C8.12042 19.9691 8.12059 19.969 8.12075 19.9689C8.12109 19.9687 8.12153 19.9685 8.12209 19.9682C8.12321 19.9675 8.12479 19.9667 8.1268 19.9656C8.13083 19.9633 8.13665 19.9601 8.14418 19.9558C8.15924 19.9474 8.18119 19.9349 8.20957 19.9184C8.26633 19.8855 8.34881 19.8368 8.45335 19.7724C8.66239 19.6437 8.95979 19.4524 9.31612 19.2007C10.0284 18.6976 10.9783 17.9512 11.9288 16.9779C13.8269 15.0346 15.75 12.1627 15.75 8.5H15.25ZM13.1265 3.37348C14.4862 4.73311 15.25 6.57718 15.25 8.5H15.75C15.75 6.44457 14.9335 4.47333 13.4801 3.01992L13.1265 3.37348ZM8 1.25C9.92282 1.25 11.7669 2.01384 13.1265 3.37348L13.4801 3.01992C12.0267 1.56652 10.0554 0.75 8 0.75V1.25ZM2.87348 3.37348C4.23311 2.01384 6.07718 1.25 8 1.25V0.75C5.94457 0.75 3.97333 1.56652 2.51992 3.01992L2.87348 3.37348ZM0.75 8.5C0.75 6.57718 1.51384 4.73311 2.87348 3.37348L2.51992 3.01992C1.06652 4.47333 0.25 6.44457 0.25 8.5H0.75ZM8 19.75C8.1201 19.5307 8.12015 19.5308 8.12017 19.5308C8.12014 19.5308 8.12013 19.5308 8.12007 19.5307C8.11995 19.5307 8.11971 19.5305 8.11936 19.5303C8.11867 19.5299 8.11752 19.5293 8.11593 19.5284C8.11275 19.5267 8.10781 19.5239 8.10115 19.5202C8.08783 19.5127 8.06767 19.5012 8.04112 19.4858C7.98801 19.455 7.90936 19.4086 7.80882 19.3467C7.6077 19.2228 7.31917 19.0373 6.97237 18.7923C6.27836 18.3021 5.35325 17.575 4.42885 16.6286C2.57689 14.7324 0.75 11.9793 0.75 8.5H0.25C0.25 12.1627 2.17311 15.0346 4.07115 16.9779C5.02175 17.9512 5.97164 18.6976 6.68388 19.2007C7.04021 19.4524 7.33761 19.6437 7.54665 19.7724C7.65119 19.8368 7.73367 19.8855 7.79043 19.9184C7.81881 19.9349 7.84076 19.9474 7.85582 19.9558C7.86335 19.9601 7.86917 19.9633 7.8732 19.9656C7.87521 19.9667 7.87679 19.9675 7.87791 19.9682C7.87847 19.9685 7.87891 19.9687 7.87925 19.9689C7.87941 19.969 7.87958 19.9691 7.87966 19.9691C7.87979 19.9692 7.8799 19.9693 8 19.75ZM10.75 8.5C10.75 9.22935 10.4603 9.92882 9.94454 10.4445L10.2981 10.7981C10.9076 10.1886 11.25 9.36195 11.25 8.5H10.75ZM9.94454 6.55546C10.4603 7.07118 10.75 7.77065 10.75 8.5H11.25C11.25 7.63805 10.9076 6.8114 10.2981 6.2019L9.94454 6.55546ZM8 5.75C8.72935 5.75 9.42882 6.03973 9.94454 6.55546L10.2981 6.2019C9.6886 5.59241 8.86195 5.25 8 5.25V5.75ZM6.05546 6.55546C6.57118 6.03973 7.27065 5.75 8 5.75V5.25C7.13805 5.25 6.3114 5.59241 5.7019 6.2019L6.05546 6.55546ZM5.25 8.5C5.25 7.77065 5.53973 7.07118 6.05546 6.55546L5.7019 6.2019C5.09241 6.8114 4.75 7.63805 4.75 8.5H5.25ZM6.05546 10.4445C5.53973 9.92882 5.25 9.22935 5.25 8.5H4.75C4.75 9.36195 5.09241 10.1886 5.7019 10.7981L6.05546 10.4445ZM8 11.25C7.27065 11.25 6.57118 10.9603 6.05546 10.4445L5.7019 10.7981C6.3114 11.4076 7.13805 11.75 8 11.75V11.25ZM9.94454 10.4445C9.42882 10.9603 8.72935 11.25 8 11.25V11.75C8.86195 11.75 9.6886 11.4076 10.2981 10.7981L9.94454 10.4445Z"
    fill="black" />
</svg>